<svg width="18" height="18" viewBox="0 0 18 18" fill="none" xmlns="http://www.w3.org/2000/svg">
<g clip-path="url(#clip0_125_162834)">
<path fill-rule="evenodd" clip-rule="evenodd" d="M8.57644 0.00695017C8.53931 0.0102804 8.46169 0.0165809 8.40395 0.0209012C8.07889 0.0453379 7.72481 0.0992963 7.39139 0.175126C7.3625 0.181697 7.32537 0.190112 7.3089 0.193802C7.27029 0.202442 7.18879 0.223729 7.08012 0.253521C7.03267 0.266528 6.98038 0.280523 6.96388 0.284573C6.94735 0.288668 6.91024 0.29992 6.88138 0.309595C6.85249 0.319271 6.80357 0.334481 6.77261 0.343393C6.7417 0.352303 6.71117 0.362383 6.70487 0.365758C6.69854 0.369133 6.68165 0.374445 6.66734 0.377505C6.65303 0.380565 6.63797 0.385695 6.63386 0.388935C6.62972 0.39213 6.61451 0.398207 6.60011 0.402392C6.55895 0.414317 6.41952 0.464045 6.38636 0.478627C6.36984 0.485872 6.33105 0.501127 6.30009 0.512604C6.24811 0.531819 6.19825 0.552116 6.16135 0.569038C6.15307 0.572818 6.12943 0.582448 6.10882 0.590414C6.08821 0.598334 6.04771 0.615616 6.01882 0.628711C5.98993 0.641853 5.95451 0.657828 5.94007 0.664263C5.78495 0.733433 5.51052 0.870917 5.37777 0.945938C5.36319 0.954173 5.33101 0.971905 5.3062 0.98536C5.14213 1.07429 4.60791 1.41428 4.5405 1.47265C4.53573 1.47679 4.52416 1.48521 4.51476 1.49142C4.4928 1.50587 4.19393 1.72926 4.18057 1.74114C4.17503 1.74613 4.16612 1.75356 4.16077 1.75766C4.1452 1.76972 4.07756 1.82403 4.06121 1.83762C4.05299 1.84451 4.01078 1.87952 3.96749 1.91543C3.92414 1.95134 3.88701 1.98293 3.88494 1.9856C3.88287 1.98824 3.86937 2.00009 3.85497 2.01188C3.82955 2.03263 3.73693 2.11354 3.71236 2.13646C3.7057 2.14261 3.66844 2.17624 3.62947 2.2111C3.53878 2.29239 3.10208 2.72914 3.03345 2.80721C3.0047 2.83993 2.97104 2.87728 2.95866 2.89021C2.93247 2.91751 2.8404 3.02089 2.83491 3.02917C2.83072 3.03547 2.7549 3.12273 2.73739 3.14136C2.73121 3.14798 2.71264 3.17012 2.69617 3.19055C2.67964 3.21102 2.66053 3.23453 2.65369 3.24275C2.63371 3.26669 2.59306 3.31688 2.56862 3.34769C2.55625 3.36337 2.54104 3.38164 2.53478 3.3883C2.52853 3.395 2.51521 3.41224 2.50513 3.42664C2.49509 3.44104 2.48461 3.45445 2.48182 3.45652C2.47907 3.45859 2.45374 3.49067 2.42557 3.5278C2.39735 3.56494 2.36993 3.59977 2.36459 3.6052C2.35922 3.61066 2.35481 3.61741 2.35478 3.6202C2.35469 3.62299 2.34542 3.63591 2.33411 3.64891C2.32286 3.66192 2.30855 3.67987 2.3024 3.68887C2.29619 3.69787 2.26076 3.74674 2.22363 3.79751C2.18651 3.84827 2.15105 3.89738 2.14488 3.90659C2.13867 3.91586 2.13026 3.92729 2.12612 3.93206C2.11347 3.9467 2.09174 3.97865 1.9651 4.16911C1.79355 4.42701 1.71804 4.54464 1.68816 4.60037C1.68154 4.61273 1.67421 4.62452 1.67191 4.62659C1.66579 4.63208 1.59734 4.74644 1.59734 4.75117C1.59734 4.75337 1.58722 4.76989 1.57484 4.78789C1.56246 4.80584 1.55234 4.82285 1.55234 4.82569C1.55234 4.82848 1.53578 4.85827 1.51553 4.89184C1.49532 4.92541 1.47057 4.96807 1.46062 4.98661C1.45063 5.00521 1.42449 5.05246 1.40248 5.09166C1.38052 5.13081 1.34623 5.19327 1.32629 5.2304C1.28395 5.30942 1.04039 5.79712 1.00237 5.87921C0.946427 5.99981 0.922306 6.05291 0.922306 6.05534C0.922306 6.05675 0.910246 6.08434 0.895531 6.11665C0.864524 6.18473 0.861059 6.19261 0.839817 6.24298C0.831087 6.26359 0.82096 6.2872 0.817315 6.29548C0.813625 6.30373 0.8035 6.32734 0.794815 6.34795C0.786083 6.36862 0.775958 6.39225 0.772313 6.40048C0.753097 6.44355 0.735412 6.48693 0.723262 6.5205C0.71579 6.54111 0.707465 6.56136 0.70472 6.5655C0.701975 6.5696 0.691895 6.59493 0.682353 6.62177C0.672768 6.64853 0.662103 6.6737 0.658638 6.6776C0.655128 6.68153 0.652293 6.68999 0.652248 6.69638C0.652203 6.70277 0.647476 6.71708 0.641716 6.72809C0.635911 6.73916 0.628936 6.75857 0.626191 6.77117C0.623401 6.78377 0.618001 6.79601 0.614219 6.79835C0.610394 6.80074 0.607289 6.80834 0.607244 6.81532C0.607199 6.82229 0.602834 6.83647 0.597524 6.84677C0.588074 6.86504 0.576598 6.89596 0.530606 7.02679C0.518321 7.06185 0.505314 7.09726 0.501759 7.10554C0.488169 7.13704 0.374539 7.47668 0.344927 7.57429C0.33552 7.60525 0.326025 7.63564 0.323775 7.64179C0.312975 7.67182 0.259736 7.84886 0.243671 7.90808C0.238091 7.92869 0.227965 7.96415 0.22117 7.98683C0.214375 8.00951 0.20398 8.04578 0.198038 8.06747C0.155331 8.22355 0.142776 8.27035 0.1313 8.31685C0.125675 8.33956 0.112309 8.39353 0.101598 8.43687C0.0908879 8.4802 0.0787822 8.52741 0.074732 8.54185C0.0628965 8.58407 0.0303597 8.7293 0.00785862 8.84059C-0.00267194 8.89243 -0.00258192 9.10669 0.00790362 9.15822C0.0346801 9.28922 0.0462906 9.34362 0.052546 9.36693C0.0564161 9.38135 0.0785122 9.46913 0.101688 9.56194C0.142641 9.72619 0.152676 9.76513 0.176032 9.85072C0.203485 9.95144 0.20947 9.9729 0.22 10.0082C0.226165 10.0288 0.234895 10.0592 0.239441 10.0757C0.258296 10.144 0.271348 10.1893 0.277333 10.207C0.280798 10.2173 0.290878 10.2511 0.299743 10.282C0.30861 10.3129 0.318555 10.345 0.32184 10.3532C0.32517 10.3615 0.335565 10.3935 0.344927 10.4245C0.361217 10.4782 0.435155 10.7028 0.475792 10.822C0.486369 10.853 0.497889 10.8834 0.501444 10.8897C0.504999 10.8961 0.510399 10.913 0.513461 10.9273C0.516521 10.9416 0.521516 10.9567 0.524576 10.9608C0.527636 10.9649 0.542756 11.0048 0.558148 11.0494C0.573583 11.094 0.590909 11.1396 0.596669 11.1506C0.602474 11.1617 0.607199 11.1765 0.607244 11.1835C0.607289 11.1905 0.610664 11.1982 0.614804 11.2008C0.618901 11.2033 0.622321 11.2111 0.622321 11.2181C0.622366 11.2251 0.627406 11.2405 0.633571 11.2523C0.639736 11.2641 0.644821 11.2776 0.644821 11.2823C0.644866 11.287 0.649231 11.2992 0.654588 11.3095C0.659898 11.3199 0.672228 11.3502 0.681993 11.377C0.69176 11.4039 0.701975 11.4292 0.70472 11.4333C0.707465 11.4374 0.71579 11.4577 0.723262 11.4783C0.735412 11.5119 0.753097 11.5553 0.772313 11.5983C0.775958 11.6066 0.786083 11.6302 0.794815 11.6508C0.8035 11.6715 0.813625 11.6951 0.817315 11.7033C0.82096 11.7116 0.831087 11.7352 0.839817 11.7558C0.861059 11.8062 0.864524 11.8141 0.895531 11.8822C0.910246 11.9145 0.922306 11.9421 0.922306 11.9435C0.922306 11.9468 0.960332 12.0307 0.998676 12.1121C1.04521 12.2108 1.28579 12.6928 1.32625 12.7684C1.3857 12.8795 1.41886 12.9393 1.43736 12.9689C1.44699 12.9843 1.45482 12.999 1.45482 13.0016C1.45482 13.0041 1.47678 13.0427 1.5036 13.0872C1.53038 13.1317 1.55234 13.1698 1.55234 13.1719C1.55234 13.1759 1.67772 13.3838 1.76588 13.5259C1.83571 13.6386 2.10357 14.0407 2.12612 14.0667C2.13026 14.0715 2.13867 14.0829 2.14488 14.0922C2.15105 14.1014 2.18651 14.1505 2.22363 14.2013C2.26076 14.2521 2.29619 14.3009 2.3024 14.3099C2.30855 14.3189 2.32286 14.3369 2.33411 14.3499C2.34542 14.3629 2.35469 14.3758 2.35478 14.3786C2.35481 14.3814 2.35922 14.3882 2.36459 14.3936C2.36993 14.399 2.39735 14.4339 2.42557 14.471C2.45374 14.5081 2.47907 14.5402 2.48182 14.5423C2.48461 14.5443 2.49442 14.5569 2.50364 14.5701C2.52038 14.594 2.54338 14.6226 2.56498 14.6463C2.57123 14.6531 2.58469 14.6704 2.59492 14.6848C2.60509 14.6991 2.61853 14.7162 2.6248 14.7228C2.63758 14.7362 2.6527 14.7543 2.69617 14.8083C2.71264 14.8287 2.73121 14.8508 2.73739 14.8574C2.7549 14.8761 2.83072 14.9633 2.83491 14.9696C2.83851 14.975 2.92397 15.0717 2.94741 15.0969C2.95358 15.1036 2.98733 15.141 3.02238 15.1801C3.10631 15.2735 3.53914 15.7068 3.62947 15.7877C3.66844 15.8226 3.7057 15.8562 3.71236 15.8624C3.73693 15.8853 3.82955 15.9662 3.85497 15.9869C3.86937 15.9987 3.88287 16.0105 3.88494 16.0132C3.88701 16.0159 3.92414 16.0474 3.96749 16.0834C4.01078 16.1193 4.05338 16.1547 4.06217 16.1622C4.07093 16.1696 4.10132 16.1937 4.12967 16.2158C4.15802 16.2378 4.18291 16.258 4.18498 16.2606C4.1893 16.2661 4.48902 16.4905 4.51476 16.5074C4.52416 16.5136 4.53573 16.522 4.5405 16.5261C4.60791 16.5845 5.14213 16.9245 5.3062 17.0134C5.33101 17.0269 5.36319 17.0446 5.37777 17.0529C5.53356 17.1409 5.81681 17.281 6.00383 17.3625C6.02446 17.3715 6.05884 17.387 6.08026 17.3969C6.10162 17.4068 6.12124 17.415 6.12376 17.415C6.12634 17.415 6.14257 17.4214 6.15985 17.4291C6.17719 17.4369 6.23182 17.459 6.28132 17.4782C6.33082 17.4974 6.37808 17.5164 6.38636 17.5203C6.40512 17.5293 6.56474 17.5861 6.60011 17.5964C6.61451 17.6006 6.62972 17.6067 6.63386 17.6099C6.63797 17.6131 6.65303 17.6182 6.66734 17.6213C6.68165 17.6244 6.69854 17.6294 6.70487 17.6326C6.71117 17.6357 6.7417 17.6459 6.77261 17.6551C6.80357 17.6643 6.85249 17.6797 6.88138 17.6893C6.91024 17.699 6.94735 17.7101 6.96388 17.7142C6.98038 17.7183 7.03267 17.7323 7.08012 17.7453C7.18879 17.7751 7.27029 17.7963 7.3089 17.805C7.32537 17.8087 7.3625 17.8171 7.39139 17.8237C7.7236 17.8992 8.07831 17.9533 8.4002 17.9775C8.45588 17.9817 8.5408 17.9885 8.5889 17.9926C8.70223 18.0022 9.29822 18.0022 9.41155 17.9926C9.45965 17.9885 9.54457 17.9817 9.60025 17.9775C9.89361 17.9555 10.1807 17.9139 10.5078 17.8459C10.5346 17.8404 10.5734 17.8323 10.5941 17.8281C10.6147 17.8239 10.6433 17.8171 10.6578 17.8131C10.6722 17.809 10.7145 17.7986 10.7516 17.7898C10.7887 17.781 10.8292 17.7708 10.8416 17.767C10.854 17.7631 10.9096 17.7479 10.9653 17.7331C11.0778 17.7032 11.1341 17.6868 11.1566 17.6773C11.1648 17.6739 11.1969 17.6637 11.2278 17.6548C11.2588 17.6459 11.2976 17.6341 11.3141 17.6285C11.3598 17.6131 11.4772 17.5717 11.4941 17.565C11.5024 17.5617 11.5445 17.5463 11.5879 17.5307C11.6312 17.5152 11.67 17.5002 11.6741 17.4975C11.6782 17.4948 11.6985 17.4865 11.7191 17.479C11.7397 17.4716 11.7667 17.4612 11.7791 17.4558C11.7915 17.4505 11.8455 17.4276 11.8991 17.4051C12.1323 17.307 12.4771 17.1383 12.6552 17.0351C12.6791 17.0213 12.7001 17.0099 12.7018 17.0099C12.7212 17.0099 13.303 16.6427 13.4077 16.5644C13.4248 16.5516 13.4463 16.5361 13.4555 16.5299C13.4647 16.5237 13.4799 16.5127 13.4894 16.5055C13.5121 16.4882 13.505 16.4866 13.6017 16.5299C13.6099 16.5336 13.6471 16.5487 13.6842 16.5635C13.7213 16.5783 13.7585 16.5936 13.7667 16.5975C13.775 16.6013 13.8003 16.6114 13.823 16.6199C13.8457 16.6284 13.871 16.6385 13.8792 16.6423C13.8875 16.6461 13.9364 16.6665 13.988 16.6875C14.0783 16.7244 14.1173 16.7407 14.1493 16.7552C14.1575 16.759 14.1828 16.7689 14.2055 16.7774C14.2282 16.7859 14.2535 16.7959 14.2618 16.7998C14.27 16.8035 14.3071 16.8188 14.3443 16.8336C14.3814 16.8483 14.4185 16.8635 14.4267 16.8673C14.435 16.8711 14.4586 16.8813 14.4793 16.89C14.4999 16.8988 14.5269 16.9104 14.5392 16.9158C14.5516 16.9211 14.5786 16.9316 14.5993 16.939C14.6199 16.9464 14.6401 16.9547 14.6443 16.9574C14.6484 16.9601 14.6686 16.9684 14.6893 16.9759C14.7099 16.9833 14.7419 16.996 14.7605 17.004C14.7791 17.012 14.8061 17.0236 14.8205 17.0297C14.835 17.0359 14.8535 17.044 14.8618 17.0477C14.87 17.0514 14.9071 17.0665 14.9443 17.0813C14.9814 17.0961 15.0185 17.1113 15.0268 17.1151C15.035 17.1189 15.0603 17.129 15.0831 17.1376C15.12 17.1515 15.1424 17.1608 15.1918 17.1826C15.2001 17.1862 15.2372 17.2014 15.2743 17.2162C15.3379 17.2417 15.3744 17.257 15.4093 17.2727C15.4176 17.2765 15.4428 17.2865 15.4656 17.2949C15.4883 17.3034 15.5136 17.3135 15.5218 17.3173C15.5301 17.3211 15.5672 17.3363 15.6043 17.3511C15.6414 17.3659 15.6786 17.3811 15.6868 17.3848C15.6951 17.3886 15.7187 17.3988 15.7393 17.4076C15.7599 17.4163 15.7869 17.4279 15.7993 17.4333C15.8117 17.4387 15.8387 17.4491 15.8593 17.4565C15.88 17.464 15.9002 17.4722 15.9043 17.4749C15.9085 17.4776 15.9287 17.486 15.9493 17.4934C15.97 17.5009 16.002 17.5135 16.0206 17.5215C16.0391 17.5295 16.0661 17.5411 16.0806 17.5473C16.095 17.5534 16.1136 17.5615 16.1218 17.5652C16.1301 17.5689 16.1672 17.584 16.2043 17.5988C16.2415 17.6136 16.2786 17.6288 16.2869 17.6326C16.2951 17.6365 16.3204 17.6465 16.3431 17.6551C16.3806 17.6692 16.41 17.6815 16.4519 17.7002C16.4601 17.7039 16.4973 17.7191 16.5344 17.734C16.5997 17.7601 16.6382 17.7762 16.6694 17.7903C16.6776 17.794 16.7029 17.804 16.7256 17.8125C16.7483 17.821 16.7736 17.8311 16.7819 17.8349C16.7901 17.8388 16.8273 17.8541 16.8644 17.8689C16.9015 17.8836 16.9386 17.8987 16.9469 17.9025C16.9552 17.9062 16.9788 17.9162 16.9994 17.9248C17.02 17.9335 17.0421 17.9433 17.0484 17.9468C17.0547 17.9503 17.0716 17.9556 17.0859 17.9586C17.1002 17.9617 17.1153 17.9667 17.1194 17.9698C17.1334 17.9802 17.2637 18 17.3185 18C17.6003 18 17.8713 17.8073 17.9622 17.5425C17.9714 17.5157 17.9823 17.4836 17.9866 17.4712C17.9987 17.436 18.0031 17.2608 17.9936 17.1937C17.9889 17.1607 17.9804 17.0982 17.9746 17.0549C17.9649 16.9818 17.9565 16.9196 17.929 16.7174C17.9231 16.6741 17.9132 16.5998 17.907 16.5524C17.896 16.4682 17.8871 16.4021 17.862 16.2186C17.8552 16.1691 17.8449 16.0923 17.839 16.048C17.833 16.0037 17.8233 15.9311 17.8174 15.8867C17.8074 15.8115 17.7981 15.7432 17.7715 15.5473C17.7656 15.504 17.7557 15.4297 17.7495 15.3823C17.7385 15.2981 17.7296 15.232 17.7045 15.0486C17.6977 14.9991 17.6874 14.9223 17.6815 14.8779C17.6755 14.8336 17.6656 14.7601 17.6594 14.7148C17.6532 14.6694 17.6434 14.596 17.6375 14.5516C17.6316 14.5073 17.6213 14.4305 17.6145 14.381C17.6077 14.3315 17.5976 14.2556 17.592 14.2122C17.5818 14.1334 17.5672 14.0255 17.546 13.871C17.5398 13.8256 17.5299 13.7522 17.5239 13.7078C17.518 13.6635 17.5081 13.5901 17.5019 13.5447C17.4957 13.4993 17.4859 13.4259 17.48 13.3816C17.4741 13.3372 17.4638 13.2604 17.457 13.2109C17.4502 13.1614 17.4401 13.0855 17.4345 13.0422C17.4243 12.9633 17.4097 12.8554 17.3885 12.7009C17.3823 12.6555 17.3724 12.5821 17.3664 12.5378C17.3605 12.4934 17.3506 12.42 17.3444 12.3746C17.3382 12.3293 17.3284 12.2558 17.3225 12.2115C17.3166 12.1672 17.3063 12.0903 17.2995 12.0408C17.2927 11.9913 17.2826 11.9154 17.277 11.8721C17.2714 11.8288 17.2614 11.7522 17.2549 11.702C17.2484 11.6517 17.2411 11.6056 17.2388 11.5994C17.2353 11.5902 17.3174 11.3704 17.3601 11.2747C17.3659 11.2617 17.3707 11.2458 17.3707 11.2395C17.3707 11.2331 17.3738 11.226 17.3776 11.2237C17.3814 11.2213 17.3869 11.2085 17.3898 11.1953C17.3927 11.1821 17.398 11.1661 17.4016 11.1598C17.4105 11.1441 17.4532 11.0302 17.4532 11.0221C17.4532 11.0185 17.4578 11.0049 17.4635 10.9919C17.4927 10.9254 17.6857 10.3503 17.6857 10.3301C17.6857 10.3242 17.6889 10.3134 17.6928 10.3062C17.6967 10.2991 17.7071 10.2679 17.7158 10.237C17.7246 10.2061 17.7348 10.1723 17.7385 10.162C17.7423 10.1517 17.7485 10.1297 17.7525 10.1132C17.7564 10.0967 17.7652 10.0647 17.772 10.042C17.7788 10.0192 17.7891 9.98384 17.7947 9.96323C17.8003 9.94257 17.8156 9.8869 17.8286 9.83947C17.8749 9.67066 17.9182 9.49946 17.952 9.3519C17.959 9.32099 17.9696 9.2754 17.9754 9.25065C17.9956 9.16501 18.0004 9.11515 18 8.99566C17.9995 8.85121 17.9996 8.85202 17.9506 8.63937C17.9196 8.50509 17.8719 8.31721 17.8286 8.15933C17.8156 8.1119 17.8003 8.05622 17.7947 8.03558C17.7891 8.01497 17.7788 7.97954 17.772 7.95681C17.7652 7.93413 17.7564 7.90209 17.7525 7.88558C17.7485 7.86906 17.7423 7.84715 17.7385 7.83684C17.7348 7.82653 17.7244 7.79278 17.7154 7.76182C17.6663 7.59328 17.4894 7.06203 17.464 7.0069C17.4581 6.99388 17.4532 6.98029 17.4532 6.97669C17.4532 6.96802 17.4102 6.85406 17.4006 6.8375C17.3965 6.8303 17.3932 6.82108 17.3932 6.81689C17.3932 6.80299 17.2204 6.37245 17.1717 6.26506C17.166 6.25243 17.1498 6.21529 17.1357 6.18253C17.1215 6.14977 17.1009 6.1027 17.0898 6.07793C17.0786 6.05318 17.065 6.02282 17.0596 6.01043C16.9776 5.82408 16.7613 5.38808 16.643 5.17041C16.5915 5.07573 16.5052 4.92172 16.4899 4.89733C16.4806 4.88254 16.464 4.85437 16.4531 4.83473C16.4421 4.81516 16.4241 4.78307 16.4132 4.7635C16.4022 4.74392 16.3723 4.69409 16.3468 4.65287C16.3212 4.61162 16.2775 4.54073 16.2496 4.49537C16.1823 4.38615 15.9158 3.98624 15.8466 3.8907C15.7842 3.80457 15.5726 3.52042 15.5539 3.4978C15.5471 3.48955 15.5303 3.4688 15.5166 3.4517C15.4566 3.3766 15.4455 3.3626 15.4221 3.33353C15.3898 3.2933 15.36 3.25667 15.2968 3.1797C15.2885 3.16967 15.2767 3.1559 15.2705 3.14915C15.2644 3.14235 15.2407 3.11508 15.2181 3.08853C15.1462 3.00451 15.1397 2.997 15.1205 2.97684C15.1102 2.96599 15.0921 2.94547 15.0801 2.93119C14.952 2.77769 14.4232 2.24923 14.2543 2.10571C14.2377 2.09167 14.2226 2.07817 14.2205 2.07565C14.2133 2.06696 13.9841 1.87202 13.958 1.85238C13.9436 1.84154 13.9283 1.82898 13.9242 1.82453C13.9201 1.82003 13.8948 1.79978 13.868 1.77953C13.8412 1.75923 13.8158 1.73889 13.8117 1.73425C13.8043 1.72589 13.4884 1.49047 13.4558 1.46892C13.4464 1.46271 13.4248 1.44718 13.4077 1.43445C13.3322 1.37788 13.0124 1.17001 12.916 1.11488C12.9019 1.10682 12.8486 1.07514 12.7975 1.04454C12.7464 1.01394 12.7032 0.98887 12.7016 0.98887C12.7 0.98887 12.6791 0.97753 12.6552 0.96367C12.5002 0.873887 12.0409 0.646983 11.9703 0.625246C11.96 0.622096 11.9482 0.616876 11.9442 0.613636C11.94 0.610394 11.9063 0.595454 11.8691 0.580423C11.832 0.565393 11.7949 0.550001 11.7866 0.546176C11.7784 0.542351 11.7531 0.532314 11.7304 0.523854C11.7076 0.515349 11.6824 0.505224 11.6741 0.501307C11.6491 0.489427 11.5399 0.448834 11.5329 0.448834C11.5293 0.448834 11.5157 0.444154 11.5028 0.438484C11.4574 0.418637 11.3169 0.370168 11.2278 0.343663C11.1969 0.334481 11.1648 0.324311 11.1566 0.321071C11.132 0.31144 11.0727 0.29425 10.9653 0.265718C10.9096 0.250911 10.854 0.235656 10.8416 0.231829C10.8292 0.228049 10.7887 0.217744 10.7516 0.208967C10.7145 0.200192 10.6722 0.189752 10.6578 0.185702C10.6433 0.181697 10.6147 0.174901 10.5941 0.170671C10.5734 0.166441 10.5346 0.15843 10.5078 0.15285C10.1837 0.0855704 9.89096 0.0431327 9.60025 0.0212612C9.54457 0.0170759 9.45965 0.0103254 9.41155 0.00623016C9.3092 -0.00245542 8.67496 -0.00191542 8.57644 0.00695017Z" fill="#040404"/>
<path d="M7.46566 1.0821C7.93314 0.974902 8.36677 0.915947 8.78196 0.903077C9.35191 0.885435 9.92431 0.944163 10.5258 1.0821C10.8883 1.16517 11.4012 1.34244 11.7547 1.50688C11.7892 1.52286 11.8187 1.536 11.8204 1.536C11.8366 1.536 12.2164 1.7341 12.3784 1.82703C13.2185 2.30911 14.068 3.03847 14.7074 3.82679C14.7238 3.84704 14.754 3.88416 14.7744 3.90927C14.8333 3.98159 15.0112 4.21192 15.0558 4.27366C15.1977 4.47006 15.2376 4.52708 15.3386 4.6787C15.4885 4.90336 15.5989 5.0812 15.7159 5.28623C15.7501 5.34605 15.7906 5.41691 15.8061 5.44375C15.8863 5.58313 16.1128 6.02789 16.1939 6.20506C16.2108 6.2422 16.2356 6.2962 16.2488 6.32503C16.4892 6.84937 16.7413 7.54732 16.9085 8.15144C16.9217 8.19887 16.9369 8.25287 16.9425 8.27141C16.9584 8.3248 17.0638 8.75597 17.0782 8.82649C17.0961 8.91374 17.096 9.08506 17.078 9.17148C17.0238 9.43214 16.8957 9.91101 16.7911 10.2441C16.6808 10.5952 16.5987 10.8248 16.4462 11.2084C16.4004 11.3236 16.3844 11.3723 16.3872 11.3884C16.3892 11.4005 16.3978 11.543 16.4062 11.6069C16.4146 11.6708 16.9995 15.876 16.9995 15.876C17.0734 16.335 16.7964 16.6284 16.4395 16.6906C16.2758 16.7191 15.9073 16.5859 15.9073 16.5859L13.5316 15.6096C13.3637 15.5403 13.3236 15.5256 13.3197 15.5319C13.2993 15.5649 12.8532 15.8801 12.6204 16.0261C10.1392 17.5813 7.19285 17.4349 4.80677 15.638C3.58937 14.7211 2.5158 13.3513 1.80503 11.8079C1.73167 11.6486 1.72029 11.6234 1.68294 11.5379C1.39321 10.8739 1.14696 10.1416 0.974104 9.43025C0.901696 9.1321 0.900391 9.12463 0.900391 8.99899C0.900391 8.87324 0.901696 8.86564 0.974239 8.56772C1.20141 7.63441 1.52457 6.74645 1.93922 5.91627C2.06666 5.6611 2.09429 5.60833 2.20051 5.41751C2.51544 4.85141 2.88836 4.30759 3.32413 3.77899C3.55742 3.49597 3.92977 3.10822 4.22175 2.84423C4.55558 2.54235 4.99312 2.20723 5.30927 2.01119C5.32992 1.99841 5.37884 1.96766 5.41805 1.94291C5.48231 1.90232 5.63261 1.8147 5.75182 1.74832C5.81383 1.71381 6.16674 1.53744 6.23559 1.50657C6.26651 1.49271 6.33911 1.46134 6.39683 1.43686C6.45458 1.41242 6.51196 1.38794 6.52433 1.38249C6.70969 1.30095 7.21665 1.13916 7.46566 1.0821Z" fill="white"/>
<path d="M14.3996 9C14.3996 11.9823 11.9819 14.4 8.99961 14.4C6.01728 14.4 3.59961 11.9823 3.59961 9C3.59961 6.01765 6.01728 3.60001 8.99961 3.60001C11.9819 3.60001 14.3996 6.01765 14.3996 9Z" fill="url(#paint0_radial_125_162834)"/>
<path d="M11.2133 9.00001C11.2133 10.2223 10.2225 11.2131 9.00023 11.2131C7.77796 11.2131 6.78711 10.2223 6.78711 9.00001C6.78711 7.77774 7.77796 6.7869 9.00023 6.7869C10.2225 6.7869 11.2133 7.77774 11.2133 9.00001Z" fill="black"/>
<path fill-rule="evenodd" clip-rule="evenodd" d="M10.2872 8.1274C10.3469 9.08863 11.2178 9.78044 12.1657 9.61956C13.2491 9.4357 13.835 8.21346 13.2987 7.25629C13.2044 7.08811 13.0994 6.96133 12.9226 6.80228C12.878 6.76214 12.7883 6.69542 12.7804 6.69654C12.7756 6.69723 12.7753 6.72475 12.775 7.14561L12.7748 7.51546L12.7963 7.56027C12.8816 7.73803 12.9168 7.88837 12.9124 8.05669C12.8971 8.64614 12.4004 9.09877 11.8182 9.05386C11.0994 8.99843 10.6607 8.2411 10.9725 7.59382C10.9789 7.58056 10.9929 7.55271 11.0036 7.53195L11.0232 7.49418V7.08876C11.0232 6.86577 11.0226 6.68334 11.0218 6.68334C11.0201 6.68334 10.9744 6.71436 10.9483 6.73334C10.5681 7.00921 10.3311 7.43641 10.2894 7.92089C10.2864 7.95552 10.285 8.09134 10.2872 8.1274ZM11.6066 7.26354C11.6077 8.10018 11.6072 8.0684 11.6217 8.11294C11.6941 8.3352 12.0082 8.37873 12.1387 8.1846C12.1735 8.13267 12.1821 8.10297 12.1867 8.01892C12.1922 7.91472 12.1941 6.45616 12.1886 6.45446C12.1706 6.44887 12.0718 6.43613 12.0042 6.43067C11.9691 6.42784 11.8159 6.42786 11.7801 6.4307C11.7233 6.43519 11.6465 6.44461 11.6157 6.45084L11.6057 6.45285L11.6056 6.49617C11.6056 6.52 11.606 6.86532 11.6066 7.26354Z" fill="white" fill-opacity="0.8"/>
</g>
<defs>
<radialGradient id="paint0_radial_125_162834" cx="0" cy="0" r="1" gradientUnits="userSpaceOnUse" gradientTransform="translate(8.99961 9) rotate(90) scale(5.39999)">
<stop stop-color="#003DA5" stop-opacity="0.5"/>
<stop offset="0.885417" stop-color="#003DA5"/>
</radialGradient>
<clipPath id="clip0_125_162834">
<rect width="18" height="18" fill="white"/>
</clipPath>
</defs>
</svg>
